<?xml version="1.0" encoding="UTF-8"?>
<svg width="24px" height="24px" viewBox="0 0 24 24" version="1.1" xmlns="http://www.w3.org/2000/svg" xmlns:xlink="http://www.w3.org/1999/xlink">
    <title>icon/document-or</title>
    <g id="icon/document-or" stroke="none" stroke-width="1" fill="none" fill-rule="evenodd">
        <g id="Group">
            <polygon id="Path" points="0 0 24 0 24 24 0 24"></polygon>
            <path d="M17,2 L17,4 L20.007,4 C20.555,4 21,4.445 21,4.993 L21,21.007 C21,21.555 20.555,22 20.007,22 L3.993,22 C3.445,22 3,21.555 3,21.007 L3,4.993 C3,4.445 3.445,4 3.993,4 L7,4 L7,2 L17,2 Z M7,6 L5,6 L5,20 L19,20 L19,6 L17,6 L17,8 L7,8 L7,6 Z M9,16 L9,18 L7,18 L7,16 L9,16 Z M9,13 L9,15 L7,15 L7,13 L9,13 Z M9,10 L9,12 L7,12 L7,10 L9,10 Z M15,4 L9,4 L9,6 L15,6 L15,4 Z" id="Shape" fill="#224B59" fill-rule="nonzero"></path>
        </g>
    </g>
</svg>