<?xml version="1.0" encoding="UTF-8"?>
<svg width="24px" height="24px" viewBox="0 0 24 24" version="1.1" xmlns="http://www.w3.org/2000/svg" xmlns:xlink="http://www.w3.org/1999/xlink">
    <!-- Generator: Sketch 58 (84663) - https://sketch.com -->
    <title>icon/edit</title>
    <desc>Created with Sketch.</desc>
    <g id="icon/edit" stroke="none" stroke-width="1" fill="none" fill-rule="evenodd">
        <g id="Group">
            <polygon id="Path" points="0 0 24 0 24 24 0 24"></polygon>
            <path d="M5,19 L6.414,19 L15.728,9.686 L14.314,8.272 L5,17.586 L5,19 Z M21,21 L3,21 L3,16.757 L16.435,3.322 C16.8254999,2.93161806 17.4585001,2.93161806 17.849,3.322 L20.678,6.151 C21.0683819,6.54149985 21.0683819,7.17450015 20.678,7.565 L9.243,19 L21,19 L21,21 Z M15.728,6.858 L17.142,8.272 L18.556,6.858 L17.142,5.444 L15.728,6.858 L15.728,6.858 Z" id="Shape" fill="#EE573F" fill-rule="nonzero"></path>
        </g>
    </g>
</svg>