<?xml version="1.0" encoding="UTF-8"?>
<svg width="24px" height="24px" viewBox="0 0 24 24" version="1.1" xmlns="http://www.w3.org/2000/svg" xmlns:xlink="http://www.w3.org/1999/xlink">
    <title>icon/highlight_alt</title>
    <g id="icon/highlight_alt" stroke="none" stroke-width="1" fill="none" fill-rule="evenodd">
        <g id="highlight_alt-24px">
            <polygon id="Path" points="0 0 24 0 24 24 0 24"></polygon>
            <path d="M17,5 L15,5 L15,3 L17,3 L17,5 Z M15,21 L17,21 L17,18.41 L19.59,21 L21,19.59 L18.41,17 L21,17 L21,15 L15,15 L15,21 Z M19,9 L21,9 L21,7 L19,7 L19,9 Z M19,13 L21,13 L21,11 L19,11 L19,13 Z M11,21 L13,21 L13,19 L11,19 L11,21 Z M7,5 L9,5 L9,3 L7,3 L7,5 Z M3,17 L5,17 L5,15 L3,15 L3,17 Z M5,21 L5,19 L3,19 C3,20.1 3.9,21 5,21 Z M19,3 L19,5 L21,5 C21,3.9 20.1,3 19,3 Z M11,5 L13,5 L13,3 L11,3 L11,5 Z M3,9 L5,9 L5,7 L3,7 L3,9 Z M7,21 L9,21 L9,19 L7,19 L7,21 Z M3,13 L5,13 L5,11 L3,11 L3,13 Z M3,5 L5,5 L5,3 C3.9,3 3,3.9 3,5 Z" id="Shape" fill="#EE573F" fill-rule="nonzero"></path>
        </g>
    </g>
</svg>