<?xml version="1.0" encoding="UTF-8"?>
<svg width="16px" height="16px" viewBox="0 0 16 16" version="1.1" xmlns="http://www.w3.org/2000/svg" xmlns:xlink="http://www.w3.org/1999/xlink">
    <title>option-sell</title>
    <g id="App" stroke="none" stroke-width="1" fill="none" fill-rule="evenodd">
        <g id="index-option" transform="translate(-275.000000, -148.000000)" fill="#424242" fill-rule="nonzero">
            <g id="Group-3" transform="translate(259.000000, 89.000000)">
                <g id="Group-8" transform="translate(16.000000, 57.000000)">
                    <path d="M5,11 L8,6 L11,11 L9,11 L9,18 L7,18 L7,11 L5,11 Z M8,2 C12.418278,2 16,5.581722 16,10 C16,12.9722061 14.379147,15.5658416 11.973133,16.9452147 L11.5241466,16.0494921 C13.6031281,14.8357599 15,12.5810084 15,10 C15,6.13400675 11.8659932,3 8,3 C4.13400675,3 1,6.13400675 1,10 C1,12.5810084 2.39687189,14.8357599 4.47585338,16.0494921 L4.02786929,16.9457892 C1.62130315,15.5665619 0,12.9726188 0,10 C0,5.581722 3.581722,2 8,2 Z" id="option-sell"></path>
                </g>
            </g>
        </g>
    </g>
</svg>