<?xml version="1.0" encoding="UTF-8"?>
<svg width="24px" height="24px" viewBox="0 0 24 24" version="1.1" xmlns="http://www.w3.org/2000/svg" xmlns:xlink="http://www.w3.org/1999/xlink">
    <!-- Generator: Sketch 58 (84663) - https://sketch.com -->
    <title>icon/sms_failed</title>
    <desc>Created with Sketch.</desc>
    <g id="icon/sms_failed" stroke="none" stroke-width="1" fill="none" fill-rule="evenodd">
        <g id="sms_failed-24px">
            <polygon id="Path" points="0 0 24 0 24 24 0 24"></polygon>
            <path d="M20,2 L4,2 C2.9,2 2.01,2.9 2.01,4 L2,22 L6,18 L20,18 C21.1,18 22,17.1 22,16 L22,4 C22,2.9 21.1,2 20,2 Z M13,14 L11,14 L11,12 L13,12 L13,14 Z M13,10 L11,10 L11,6 L13,6 L13,10 Z" id="Shape" fill="#EE573F" fill-rule="nonzero"></path>
        </g>
    </g>
</svg>