<?xml version="1.0" encoding="UTF-8"?>
<svg width="24px" height="24px" viewBox="0 0 24 24" version="1.1" xmlns="http://www.w3.org/2000/svg" xmlns:xlink="http://www.w3.org/1999/xlink">
    <!-- Generator: Sketch 58 (84663) - https://sketch.com -->
    <title>icon/trash-or</title>
    <desc>Created with Sketch.</desc>
    <g id="icon/trash-or" stroke="none" stroke-width="1" fill="none" fill-rule="evenodd">
        <g id="Group">
            <polygon id="Path" points="0 0 24 0 24 24 0 24"></polygon>
            <path d="M17,6 L22,6 L22,8 L20,8 L20,21 C20,21.5522847 19.5522847,22 19,22 L5,22 C4.44771525,22 4,21.5522847 4,21 L4,8 L2,8 L2,6 L7,6 L7,3 C7,2.44771525 7.44771525,2 8,2 L16,2 C16.5522847,2 17,2.44771525 17,3 L17,6 Z M18,8 L6,8 L6,20 L18,20 L18,8 Z M13.414,14 L15.182,15.768 L13.768,17.182 L12,15.414 L10.232,17.182 L8.818,15.768 L10.586,14 L8.818,12.232 L10.232,10.818 L12,12.586 L13.768,10.818 L15.182,12.232 L13.414,14 Z M9,4 L9,6 L15,6 L15,4 L9,4 Z" id="Shape" fill="#EE573F" fill-rule="nonzero"></path>
        </g>
    </g>
</svg>